<svg width="28" height="19" viewBox="0 0 28 19" fill="none" xmlns="http://www.w3.org/2000/svg">
<path d="M5.37465 18.5622C8.04549 18.5622 10.2712 16.5244 10.6751 13.8503H11.9858C12.2826 14.4694 12.9091 14.8993 13.6345 14.8993C14.6484 14.8993 15.4645 14.048 15.4645 12.999C15.4645 12.5347 15.2996 12.1048 15.0276 11.7695L19.0751 7.25532L19.3883 8.08936C17.7561 9.04378 16.6515 10.8752 16.6515 12.9647C16.6515 16.0601 19.0586 18.5708 22.0344 18.5708C24.9938 18.5708 27.3926 16.0601 27.3926 12.9647C27.3926 9.86923 24.9938 7.36709 22.0344 7.36709C21.581 7.36709 21.1359 7.42728 20.7155 7.53906L18.3826 1.37401C18.2178 0.926897 17.921 0.737732 17.4017 0.737732H14.9287C14.5247 0.737732 14.195 1.08167 14.195 1.50299C14.195 1.91571 14.5247 2.25965 14.9287 2.25965H17.1131C17.1873 2.25965 17.2038 2.27684 17.2286 2.32844L18.5475 5.83658L11.2192 6.91998L10.1393 4.81337H11.0461C11.45 4.81337 11.7715 4.47803 11.7715 4.05671C11.7715 3.63539 11.4417 3.29146 11.0461 3.29146H7.51791C7.12224 3.29146 6.7925 3.63539 6.7925 4.05671C6.7925 4.47803 7.11399 4.81337 7.51791 4.81337H8.56482L9.71888 7.12634L8.53184 8.4333C7.64981 7.76262 6.55345 7.36709 5.37465 7.36709C2.39881 7.36709 0 9.86923 0 12.9647C0 16.0601 2.40705 18.5622 5.37465 18.5622ZM13.6345 11.0988C13.5438 11.0988 13.4614 11.1074 13.3707 11.116L11.8951 8.23553L17.0967 7.47028L13.7746 11.0988C13.7251 11.0988 13.6839 11.0988 13.6345 11.0988ZM10.7246 12.4316C10.6174 11.2966 10.1888 10.2562 9.53753 9.42211L10.4031 8.48489L12.1259 11.9242C12.0188 12.079 11.9446 12.251 11.8869 12.4316H10.7246ZM5.37465 17.0317C3.2149 17.0317 1.4838 15.226 1.4838 12.9647C1.4838 10.7205 3.22314 8.90621 5.37465 8.90621C6.16601 8.90621 6.89142 9.14696 7.50143 9.55969L5.50654 11.7523C5.46533 11.7437 5.42411 11.7437 5.37465 11.7437C4.72343 11.7437 4.21234 12.2682 4.2041 12.9647C4.19585 13.6439 4.71518 14.1856 5.37465 14.1856C5.6879 14.1856 5.97641 14.0566 6.1825 13.8503H9.17482C8.79563 15.6731 7.23764 17.0317 5.37465 17.0317ZM22.0344 17.0317C19.8747 17.0317 18.1353 15.226 18.1353 12.9647C18.1353 11.5287 18.8525 10.2648 19.9324 9.54249L20.9958 12.38C20.9133 12.5519 20.8556 12.7497 20.8556 12.9647C20.8474 13.6439 21.3667 14.1856 22.0344 14.1856C22.6856 14.1856 23.1967 13.6439 23.1967 12.9647C23.1967 12.3886 22.834 11.9156 22.3229 11.7781L21.2678 8.98359C21.5151 8.932 21.7706 8.90621 22.0344 8.90621C24.1777 8.90621 25.9253 10.7291 25.9253 12.9647C25.9253 15.2174 24.1777 17.0317 22.0344 17.0317ZM6.76777 12.4316L8.50711 10.5485C8.88631 11.0816 9.15009 11.7265 9.24077 12.4316H6.76777ZM13.6427 13.6095C13.3047 13.6095 13.0409 13.3344 13.0409 13.0162C13.0409 12.6723 13.313 12.38 13.6427 12.38C13.9724 12.38 14.228 12.6637 14.228 13.0162C14.228 13.343 13.9724 13.6095 13.6427 13.6095Z" fill="white"/>
</svg>
